<?xml version="1.0" standalone="no"?><!DOCTYPE svg PUBLIC "-//W3C//DTD SVG 1.1//EN" "http://www.w3.org/Graphics/SVG/1.1/DTD/svg11.dtd"><svg t="1506157569487" class="icon" style="" viewBox="0 0 1024 1024" version="1.1" xmlns="http://www.w3.org/2000/svg" p-id="2937" xmlns:xlink="http://www.w3.org/1999/xlink" width="512" height="512"><defs><style type="text/css"></style></defs><path d="M614.048 562.25H409.953c-191.061 0-346.511 153.063-346.511 341.256v20.078c0 100.415 152.923 100.415 346.511 100.415H614.05c185.892 0 346.482 0 346.511-100.415v-20.078c0-188.163-155.48-341.257-346.512-341.257z m286.646 363.237c0 4.816-7.316 21.149-101.44 29.155-59.857 5.092-131.24 5.092-183.36 5.092H408.078c-62.848 0-134.083 0-191.28-5.09-84.408-7.51-93.52-22.891-93.52-29.157v-20.446c0-154.111 127.761-279.49 284.801-279.49h207.816c157.04 0 284.8 125.379 284.8 279.49v20.446zM501.79 0C350.09 0 226.757 121.57 226.757 271.03c0 149.457 123.333 271.058 275.034 271.058 151.645 0 275.034-121.599 275.034-271.058C776.825 121.57 653.493 0 501.791 0z m0 477.85c-116.733 0-211.704-93.15-211.704-207.645 0-114.479 94.97-207.614 211.704-207.614 116.735 0 211.706 93.135 211.706 207.614 0 114.496-94.97 207.644-211.705 207.644z" p-id="2938" fill="#bfbfbf"></path></svg>