<?xml version="1.0" standalone="no"?><!DOCTYPE svg PUBLIC "-//W3C//DTD SVG 1.1//EN" "http://www.w3.org/Graphics/SVG/1.1/DTD/svg11.dtd"><svg t="1506157680860" class="icon" style="" viewBox="0 0 1024 1024" version="1.1" xmlns="http://www.w3.org/2000/svg" p-id="2930" xmlns:xlink="http://www.w3.org/1999/xlink" width="512" height="512"><defs><style type="text/css"></style></defs><path d="M847.029426 367.110075h-63.960731v-63.959707h0.001024c0-141.29812-114.544803-255.842922-255.842923-255.842922S271.383874 161.852248 271.383874 303.149345v63.96073h-63.964824c-35.322483 0-63.956637 28.634154-63.956638 63.956638V878.794897c0 35.322483 28.634154 63.956637 63.956638 63.956637h639.610376c35.322483 0 63.956637-28.634154 63.956637-63.956637V431.066713c0-35.32146-28.634154-63.956637-63.956637-63.956638z m-511.684822-63.96073c0-105.972567 85.908602-191.881169 191.882192-191.881169s191.881169 85.907579 191.882192 191.881169h-0.001023v63.96073H335.344604v-63.96073z m511.684822 543.924083c0 17.520025-14.202467 31.722492-31.722492 31.722492H239.145635c-17.520025 0-31.722492-14.202467-31.722492-31.722492V462.793298c0-17.520025 14.202467-31.722492 31.722492-31.722492h576.161299c17.520025 0 31.722492 14.202467 31.722492 31.722492v384.28013z" p-id="2931" fill="#bfbfbf"></path><path d="M527.226796 495.031537c-70.64906 0-127.921461 57.272401-127.921461 127.921461 0 59.605539 40.766472 109.689215 95.939049 123.890658v36.269042c0 17.520025 14.202467 31.722492 31.722492 31.722492h0.515747c17.520025 0 31.722492-14.202467 31.722492-31.722492v-36.268019c55.174624-14.20042 95.943143-64.285119 95.943142-123.891681 0-70.64906-57.272401-127.921461-127.921461-127.921461z m0 191.882191c-35.32453 0-63.960731-28.636201-63.96073-63.96073s28.636201-63.960731 63.96073-63.960731 63.960731 28.636201 63.960731 63.960731-28.636201 63.960731-63.960731 63.96073z" p-id="2932" fill="#bfbfbf"></path></svg>