<?xml version="1.0" standalone="no"?><!DOCTYPE svg PUBLIC "-//W3C//DTD SVG 1.1//EN" "http://www.w3.org/Graphics/SVG/1.1/DTD/svg11.dtd"><svg t="1506259591598" class="icon" style="" viewBox="0 0 1024 1024" version="1.1" xmlns="http://www.w3.org/2000/svg" p-id="2401" xmlns:xlink="http://www.w3.org/1999/xlink" width="512" height="512"><defs><style type="text/css"></style></defs><path d="M567.963 573.506c100.063-49.325 169.063-151.883 169.063-270.049 0-166.259-136.269-301.472-303.745-301.472S129.535 137.197 129.535 303.457c0 118.224 68.974 220.895 169.182 270.251C125.491 630.065 0 792.021 0 982.5c0 19.513 15.951 35.497 35.8 35.497 19.707 0 35.772-15.784 35.772-35.497 0-198.083 162.304-359.15 361.825-359.15 79.664 0 155.253 25.283 218.506 72.916 15.544 11.878 37.968 8.866 49.9-6.858 11.962-15.524 8.902-37.791-6.878-49.672-38.979-29.212-81.686-51.508-126.962-66.23z m-134.681-39.454c-128.092 0-232.317-103.502-232.317-230.595 0-127.092 104.225-230.538 232.317-230.538 128.063 0 232.289 103.446 232.289 230.538-0.001 127.092-104.226 230.595-232.289 230.595z" p-id="2402" fill="#8a8a8a"></path><path d="M552.2 755.062c0 19.571 15.95 35.668 35.801 35.668h400.196c19.708 0 35.803-15.984 35.803-35.668 0-19.6-15.951-35.668-35.803-35.668H587.856c-19.706 0-35.656 15.983-35.656 35.668zM988.053 835.091H587.856c-19.706 0-35.801 15.984-35.801 35.67 0 19.684 15.95 35.639 35.801 35.639h400.196c19.706 0 35.803-15.955 35.803-35.639 0-19.685-16.096-35.67-35.802-35.67zM988.053 950.62H587.856c-19.706 0-35.801 16.011-35.801 35.754 0 19.482 15.95 35.611 35.801 35.611h400.196c19.706 0 35.803-15.956 35.803-35.611-0.146-19.743-16.096-35.754-35.802-35.754z" p-id="2403" fill="#8a8a8a"></path></svg>