<?xml version="1.0" standalone="no"?><!DOCTYPE svg PUBLIC "-//W3C//DTD SVG 1.1//EN" "http://www.w3.org/Graphics/SVG/1.1/DTD/svg11.dtd"><svg t="1495429101070" class="icon" style="" viewBox="0 0 1024 1024" version="1.1" xmlns="http://www.w3.org/2000/svg" p-id="2373" xmlns:xlink="http://www.w3.org/1999/xlink" width="256" height="256"><defs><style type="text/css"></style></defs><path d="M885.281635 290.716174l-17.544585-17.544585c-7.992021-7.992021-20.951171-7.992021-28.943193 0L439.640995 672.324452 185.205119 417.888576c-7.992021-7.992021-20.951171-7.992021-28.943193 0l-17.544585 17.544585c-7.992021 7.992021-7.992021 20.951171 0 28.943193L407.624814 733.283826c0 0 0 0 0.001023 0.001023l17.544585 17.544585c7.992021 7.992021 20.951171 7.992021 28.943193 0l17.544585-17.544585c0 0 0 0 0.001023-0.001023l413.624459-413.624459C893.27468 311.666322 893.27468 298.708196 885.281635 290.716174z" p-id="2374"></path></svg>